STARTFONT 2.1
FONT -FontForge-Arial-Book-R-Normal--48-460-75-75-P-251-ISO10646-1
SIZE 46 75 75
FONTBOUNDINGBOX 50 47 -2 -10
COMMENT "Generated by fontforge, http://fontforge.sourceforge.net"
COMMENT "(c) 2017 The Monotype Corporation. All Rights Reserved. "
COMMENT ""
COMMENT "Hebrew OpenType Layout logic copyright (c) 2003 & 2007, Ralph Hancock & John Hudson. This layout logic for Biblical Hebrew is open source software under the MIT License; see embedded license description for details."
STARTPROPERTIES 40
FOUNDRY "FontForge"
FAMILY_NAME "Arial"
WEIGHT_NAME "Book"
SLANT "R"
SETWIDTH_NAME "Normal"
ADD_STYLE_NAME ""
PIXEL_SIZE 48
POINT_SIZE 460
RESOLUTION_X 75
RESOLUTION_Y 75
SPACING "P"
AVERAGE_WIDTH 251
CHARSET_REGISTRY "ISO10646"
CHARSET_ENCODING "1"
FONTNAME_REGISTRY ""
CHARSET_COLLECTIONS "ISO10646-1"
FONT_NAME "ArialMT"
FACE_NAME "Arial"
COPYRIGHT "(c) 2017 The Monotype Corporation. All Rights Reserved. "
FONT_VERSION "7.00"
FONT_ASCENT 38
FONT_DESCENT 10
UNDERLINE_POSITION -7
UNDERLINE_THICKNESS 4
X_HEIGHT 25
CAP_HEIGHT 34
RAW_ASCENT 799
RAW_DESCENT 200
NORM_SPACE 13
RELATIVE_WEIGHT 40
RELATIVE_SETWIDTH 50
SUPERSCRIPT_X 0
SUPERSCRIPT_Y 22
SUPERSCRIPT_SIZE 31
SUBSCRIPT_X 0
SUBSCRIPT_Y 6
SUBSCRIPT_SIZE 31
FIGURE_WIDTH 27
AVG_LOWERCASE_WIDTH 234
AVG_UPPERCASE_WIDTH 323
ENDPROPERTIES
CHARS 97
STARTCHAR space
ENCODING 32
SWIDTH 277 0
DWIDTH 13 0
BBX 1 1 0 0
BITMAP
00
ENDCHAR
STARTCHAR exclam
ENCODING 33
SWIDTH 277 0
DWIDTH 14 0
BBX 4 35 5 0
BITMAP
F0
F0
F0
F0
F0
F0
F0
F0
F0
F0
F0
F0
F0
F0
F0
F0
F0
F0
60
60
60
60
60
60
60
60
60
00
00
00
00
F0
F0
F0
F0
ENDCHAR
STARTCHAR quotedbl
ENCODING 34
SWIDTH 354 0
DWIDTH 17 0
BBX 13 12 2 23
BITMAP
F078
F078
F078
F078
F078
F078
F078
F078
F078
6030
6030
6030
ENDCHAR
STARTCHAR numbersign
ENCODING 35
SWIDTH 556 0
DWIDTH 27 0
BBX 26 35 0 0
BITMAP
00780F00
00780F00
00F81F00
00F01E00
00F01E00
00F01E00
00F01E00
01F03E00
01E03C00
01E03C00
FFFFFFC0
FFFFFFC0
FFFFFFC0
FFFFFFC0
03C07800
03C07800
03C07800
07C0F800
0780F000
0780F000
0780F000
0780F000
FFFFFFC0
FFFFFFC0
FFFFFFC0
FFFFFFC0
0F01E000
1F03E000
1E03C000
1E03C000
1E03C000
1E03C000
3E07C000
3C078000
3C078000
ENDCHAR
STARTCHAR dollar
ENCODING 36
SWIDTH 556 0
DWIDTH 27 0
BBX 22 41 2 -4
BITMAP
003000
003000
01FE00
07FF80
0FFFC0
1FFFE0
3F33F0
3E31F0
7C30F8
783078
783060
783000
783000
7C3000
3C3000
3F3000
1FF000
0FFC00
07FF80
01FFE0
003FF0
0033F8
0030F8
003078
00303C
00303C
30303C
F0303C
F8303C
F8307C
7C3078
7E30F8
3F33F0
3FFFF0
1FFFE0
07FF80
01FE00
003000
003000
003000
003000
ENDCHAR
STARTCHAR percent
ENCODING 37
SWIDTH 889 0
DWIDTH 43 0
BBX 37 35 3 0
BITMAP
0F80003800
1FE0007800
3FF0007000
787800F000
703800E000
F03C01E000
E01C01C000
E01C038000
E01C038000
E01C070000
E01C0F0000
E01C0E0000
E01C1E0000
F03C1C0000
70383C0000
7878380000
3FF0781F00
1FE0703FC0
0F80E07FE0
0000E0F0F0
0001C0E070
0003C1E078
000381C038
000781C038
000701C038
000F01C038
000E01C038
001C01C038
001C01C038
003801E078
007800E070
007000F0F0
00F0007FE0
00E0003FC0
01E0001F00
ENDCHAR
STARTCHAR ampersand
ENCODING 38
SWIDTH 666 0
DWIDTH 32 0
BBX 29 35 2 0
BITMAP
003F0000
01FFC000
03FFE000
07FFF000
07C1F000
0F80F800
0F007800
0F007800
0F007800
0F007800
0780F000
07C1F000
03E3E000
01FFC000
00FF8000
00FE0000
03FC0000
0FFE0000
1FDF0000
3F0F0100
7C0F83E0
7807C3E0
F803E7C0
F001F7C0
F000FF80
F000FF80
F0007F00
F8003F00
78007F80
7C00FFC0
3F03FFE0
1FFFF3F0
0FFFE1F8
07FF80F0
01FE0060
ENDCHAR
STARTCHAR quotesingle
ENCODING 39
SWIDTH 190 0
DWIDTH 9 0
BBX 4 12 2 23
BITMAP
F0
F0
F0
F0
F0
F0
F0
F0
F0
60
60
60
ENDCHAR
STARTCHAR parenleft
ENCODING 40
SWIDTH 333 0
DWIDTH 16 0
BBX 11 45 3 -10
BITMAP
00E0
01C0
03C0
0380
0700
0700
0E00
1E00
1E00
1C00
3C00
3C00
7800
7800
7800
7800
F000
F000
F000
F000
F000
F000
F000
F000
F000
F000
F000
F000
7000
7800
7800
7800
3800
3C00
3C00
1C00
1E00
1E00
0F00
0F00
0700
0380
03C0
01C0
00E0
ENDCHAR
STARTCHAR parenright
ENCODING 41
SWIDTH 333 0
DWIDTH 16 0
BBX 11 45 2 -10
BITMAP
E000
7000
7800
3800
3C00
1C00
0E00
0E00
0F00
0700
0780
0780
0380
03C0
03C0
03C0
01C0
01E0
01E0
01E0
01E0
01E0
01E0
01E0
01E0
01E0
01E0
01E0
03C0
03C0
03C0
03C0
0380
0780
0780
0700
0F00
0E00
1E00
1C00
1C00
3800
7800
7000
E000
ENDCHAR
STARTCHAR asterisk
ENCODING 42
SWIDTH 389 0
DWIDTH 19 0
BBX 16 15 1 20
BITMAP
03C0
03C0
03C0
03C0
63C6
FFBF
FFFF
3FFC
03C0
07E0
0EF0
1E78
3C3C
1C38
0810
ENDCHAR
STARTCHAR plus
ENCODING 43
SWIDTH 583 0
DWIDTH 28 0
BBX 22 22 2 6
BITMAP
007800
007800
007800
007800
007800
007800
007800
007800
007800
FFFFFC
FFFFFC
FFFFFC
FFFFFC
007800
007800
007800
007800
007800
007800
007800
007800
007800
ENDCHAR
STARTCHAR comma
ENCODING 44
SWIDTH 277 0
DWIDTH 13 0
BBX 4 11 4 -7
BITMAP
F0
F0
F0
F0
30
30
30
70
60
E0
40
ENDCHAR
STARTCHAR hyphen
ENCODING 45
SWIDTH 333 0
DWIDTH 16 0
BBX 13 4 2 10
BITMAP
FFF8
FFF8
FFF8
FFF8
ENDCHAR
STARTCHAR period
ENCODING 46
SWIDTH 277 0
DWIDTH 13 0
BBX 4 4 4 0
BITMAP
F0
F0
F0
F0
ENDCHAR
STARTCHAR slash
ENCODING 47
SWIDTH 277 0
DWIDTH 13 0
BBX 14 35 0 0
BITMAP
003C
003C
0078
0078
0078
00F8
00F0
00F0
00F0
01E0
01E0
01E0
03E0
03C0
03C0
03C0
0780
0780
0780
0F80
0F00
0F00
0F00
1E00
1E00
1E00
3E00
3C00
3C00
3C00
7800
7800
7800
F800
F000
ENDCHAR
STARTCHAR zero
ENCODING 48
SWIDTH 556 0
DWIDTH 27 0
BBX 23 35 2 0
BITMAP
00FE00
03FF80
0FFFE0
1FFFF0
1F83F0
3E00F8
3C0078
78007C
78003C
78003C
78003C
F0001E
F0001E
F0001E
F0001E
F0001E
F0001E
F0001E
F0001E
F0001E
F0001E
F0001E
F0001E
F0001E
78003C
78003C
78003C
78007C
3C0078
3E00F8
1F83F0
1FFFF0
0FFFE0
07FF80
00FE00
ENDCHAR
STARTCHAR one
ENCODING 49
SWIDTH 556 0
DWIDTH 27 0
BBX 13 35 5 0
BITMAP
0038
0078
0078
00F8
01F8
07F8
0FF8
3FF8
7F78
FE78
F878
E078
8078
0078
0078
0078
0078
0078
0078
0078
0078
0078
0078
0078
0078
0078
0078
0078
0078
0078
0078
0078
0078
0078
0078
ENDCHAR
STARTCHAR two
ENCODING 50
SWIDTH 556 0
DWIDTH 27 0
BBX 23 35 1 0
BITMAP
00FF00
03FFC0
0FFFF0
1FFFF8
1F81F8
3E007C
3C003C
7C003E
78001E
78001E
18001E
00001E
00003E
00003C
00007C
000078
0000F8
0001F0
0003E0
0007C0
000F80
001F00
003E00
00FC00
01F800
03F000
07C000
0F8000
1F0000
3E0000
7C0000
7FFFFE
FFFFFE
FFFFFE
FFFFFE
ENDCHAR
STARTCHAR three
ENCODING 51
SWIDTH 556 0
DWIDTH 27 0
BBX 23 35 2 0
BITMAP
01FC00
07FF80
1FFFC0
3FFFE0
3F03F0
7C01F0
7800F8
F80078
F00078
300078
000078
0000F0
0001F0
0007E0
007FC0
007F00
007FE0
007FF0
0000F8
00007C
00003C
00001E
00001E
00001E
30001E
F0001E
F8001E
F8003C
7C007C
7E00FC
3F01F8
1FFFF0
0FFFE0
07FF80
00FE00
ENDCHAR
STARTCHAR four
ENCODING 52
SWIDTH 556 0
DWIDTH 27 0
BBX 24 35 1 0
BITMAP
000070
0000F0
0001F0
0003F0
0003F0
0007F0
000FF0
001FF0
001EF0
003EF0
007CF0
00F8F0
00F0F0
01F0F0
03E0F0
03C0F0
07C0F0
0F80F0
1F00F0
1E00F0
3E00F0
7C00F0
F800F0
FFFFFF
FFFFFF
FFFFFF
FFFFFF
0000F0
0000F0
0000F0
0000F0
0000F0
0000F0
0000F0
0000F0
ENDCHAR
STARTCHAR five
ENCODING 53
SWIDTH 556 0
DWIDTH 27 0
BBX 23 35 2 0
BITMAP
07FFF8
07FFF8
0FFFF8
0FFFF8
0F0000
0F0000
0F0000
1E0000
1E0000
1E0000
1E0000
3C7F00
3DFFC0
3FFFE0
3FFFF0
3F81F8
7E007C
7C003C
18003C
00001E
00001E
00001E
00001E
00001E
00001E
F0001E
F0003C
F8003C
78007C
7C00F8
3F03F0
1FFFF0
0FFFE0
07FF80
01FE00
ENDCHAR
STARTCHAR six
ENCODING 54
SWIDTH 556 0
DWIDTH 27 0
BBX 24 35 1 0
BITMAP
007F00
01FFE0
07FFF0
0FFFF8
1FC1FC
1F007C
3E003C
3C003E
7C001E
780000
780000
700000
F03F00
F1FFE0
F3FFF0
F7FFF8
FF81FC
FE007E
FC003E
F8001E
F0000F
F0000F
F0000F
F0000F
70000F
70000F
78001F
78001E
3C003E
3E007C
1F81FC
0FFFF8
07FFF0
03FFE0
007F00
ENDCHAR
STARTCHAR seven
ENCODING 55
SWIDTH 556 0
DWIDTH 27 0
BBX 23 35 2 0
BITMAP
FFFFFE
FFFFFE
FFFFFE
FFFFFE
00001C
000038
000070
0000E0
0001E0
0003C0
000380
000780
000F00
000F00
001E00
001E00
003C00
003C00
007800
007800
00F000
00F000
00F000
01E000
01E000
01E000
03C000
03C000
03C000
03C000
07C000
078000
078000
078000
078000
ENDCHAR
STARTCHAR eight
ENCODING 56
SWIDTH 556 0
DWIDTH 27 0
BBX 23 35 2 0
BITMAP
00FE00
07FFC0
0FFFE0
1FFFF0
3F01F8
3E00F8
7C007C
78003C
78003C
78003C
78003C
7C007C
3E0078
3F01F8
1FFFF0
07FFC0
0FFFE0
1FFFF0
3F01F8
7C007C
78003C
F8003E
F0001E
F0001E
F0001E
F0001E
F0001E
F8003E
78003C
7C007C
3F01F8
1FFFF0
0FFFE0
07FFC0
00FE00
ENDCHAR
STARTCHAR nine
ENCODING 57
SWIDTH 556 0
DWIDTH 27 0
BBX 23 35 2 0
BITMAP
00FC00
07FF80
0FFFC0
1FFFE0
3F81F0
7E00F8
7C0078
78003C
F8001C
F0001C
F0001E
F0001E
F0001E
F0001E
F0001E
F8003E
78007E
7C00FE
3F01FE
1FFFDE
0FFF9E
07FF1E
01FC1E
00001C
00003C
00003C
78003C
780078
7C0078
3E00F0
3F03F0
1FFFE0
0FFFC0
07FF80
01FC00
ENDCHAR
STARTCHAR colon
ENCODING 58
SWIDTH 277 0
DWIDTH 13 0
BBX 4 26 4 0
BITMAP
F0
F0
F0
F0
00
00
00
00
00
00
00
00
00
00
00
00
00
00
00
00
00
00
F0
F0
F0
F0
ENDCHAR
STARTCHAR semicolon
ENCODING 59
SWIDTH 277 0
DWIDTH 13 0
BBX 4 33 4 -7
BITMAP
F0
F0
F0
F0
00
00
00
00
00
00
00
00
00
00
00
00
00
00
00
00
00
00
F0
F0
F0
F0
30
30
30
70
60
E0
40
ENDCHAR
STARTCHAR less
ENCODING 60
SWIDTH 583 0
DWIDTH 28 0
BBX 22 23 3 5
BITMAP
000004
00001C
0000FC
0003FC
000FF8
003FC0
00FF00
07FC00
1FE000
7F8000
FC0000
F00000
FC0000
7F8000
1FE000
07FC00
00FF00
003FC0
000FF8
0003FC
0000FC
00001C
000004
ENDCHAR
STARTCHAR equal
ENCODING 61
SWIDTH 583 0
DWIDTH 28 0
BBX 23 15 2 10
BITMAP
FFFFFE
FFFFFE
FFFFFE
FFFFFE
000000
000000
000000
000000
000000
000000
000000
FFFFFE
FFFFFE
FFFFFE
FFFFFE
ENDCHAR
STARTCHAR greater
ENCODING 62
SWIDTH 583 0
DWIDTH 28 0
BBX 22 23 3 5
BITMAP
800000
E00000
FC0000
FF0000
7FC000
0FF000
03FC00
00FF80
001FE0
0007F8
0000FC
00003C
0000FC
0007F8
001FE0
00FF80
03FC00
0FF000
7FC000
FF0000
FC0000
E00000
800000
ENDCHAR
STARTCHAR question
ENCODING 63
SWIDTH 556 0
DWIDTH 27 0
BBX 23 35 2 0
BITMAP
00FF00
07FFC0
0FFFF0
1FFFF8
3F81F8
7E00FC
7C007C
F8003E
F8001E
F0001E
30001E
00001E
00003E
00003C
00007C
0000F8
0001F0
0003E0
0007C0
000F80
001F00
001E00
003E00
003C00
003C00
003C00
003C00
000000
000000
000000
000000
003C00
003C00
003C00
003C00
ENDCHAR
STARTCHAR at
ENCODING 64
SWIDTH 1015 0
DWIDTH 49 0
BBX 44 45 3 -10
BITMAP
00003FF00000
0003FFFF0000
000FFFFFC000
003FFFFFE000
007FC00FF800
00FE0001FC00
01F800007E00
03E000003E00
07C03F000F00
0F80FFC78780
0F01FFE78780
1E03FFFF83C0
1C07E0FF01C0
3C0FC07F01C0
380F003F01E0
781F003F00E0
701E001F00E0
703E001E00E0
703C001E00E0
E03C001E00E0
E07C001E00E0
E078001E00E0
E078001C01E0
E078003C01C0
E078003C03C0
E078007C03C0
E07800780780
E07C00F80F00
F03C01F81F00
703E03F83E00
701F0FF8FC00
781FFF7FF800
380FFE7FF000
3C07FC3FE000
3C01F01F00F0
1E00000001E0
0F00000003C0
0FC000000FC0
07F000001F80
03FC00007F00
00FFC007FC00
007FFFFFF800
001FFFFFE000
0007FFFF8000
00003FFC0000
ENDCHAR
STARTCHAR A
ENCODING 65
SWIDTH 666 0
DWIDTH 32 0
BBX 31 35 0 0
BITMAP
00038000
0007C000
0007C000
000FE000
000EE000
000EE000
001EF000
001C7000
003C7800
00383800
00383800
00783C00
00701C00
00F01E00
00F01E00
00E00E00
01E00F00
01E00F00
03C00780
03C00780
03FFFF80
07FFFFC0
07FFFFC0
0FFFFFE0
0F0001E0
0F0001E0
1E0000F0
1E0000F0
3C000078
3C000078
3C000078
7800003C
7800003C
F800003E
F000001E
ENDCHAR
STARTCHAR B
ENCODING 66
SWIDTH 666 0
DWIDTH 32 0
BBX 26 35 4 0
BITMAP
FFFFC000
FFFFF800
FFFFFC00
FFFFFE00
F0007F00
F0001F00
F0000F80
F0000780
F0000780
F0000780
F0000780
F0000780
F0000F00
F0001F00
F0007E00
FFFFFE00
FFFFF800
FFFFFC00
FFFFFE00
F0003F00
F0000F80
F0000780
F00003C0
F00003C0
F00003C0
F00003C0
F00003C0
F00007C0
F0000780
F0000F80
F0003F00
FFFFFF00
FFFFFE00
FFFFF800
FFFFC000
ENDCHAR
STARTCHAR C
ENCODING 67
SWIDTH 722 0
DWIDTH 35 0
BBX 31 37 2 -1
BITMAP
000FF000
007FFE00
01FFFF80
03FFFFC0
07F00FE0
0FC003F0
1F0001F0
1E0000F8
3E000078
3C00007C
7800003C
78000000
78000000
F8000000
F0000000
F0000000
F0000000
F0000000
F0000000
F0000000
F0000000
F0000000
F0000000
F8000000
78000018
7800001E
7C00003E
3C00003C
3E00007C
1E0000F8
1F8001F8
0FC003F0
07F80FE0
03FFFFC0
01FFFF80
007FFE00
000FF800
ENDCHAR
STARTCHAR D
ENCODING 68
SWIDTH 722 0
DWIDTH 35 0
BBX 29 35 4 0
BITMAP
FFFFC000
FFFFF800
FFFFFE00
FFFFFF00
F0003F80
F0000FC0
F00007C0
F00003E0
F00001E0
F00000F0
F00000F0
F00000F0
F0000078
F0000078
F0000078
F0000078
F0000078
F0000078
F0000078
F0000078
F0000078
F0000078
F00000F8
F00000F0
F00000F0
F00001F0
F00001E0
F00003E0
F00007C0
F0000FC0
F0007F80
FFFFFF00
FFFFFE00
FFFFF800
FFFFC000
ENDCHAR
STARTCHAR E
ENCODING 69
SWIDTH 666 0
DWIDTH 32 0
BBX 25 35 4 0
BITMAP
FFFFFF00
FFFFFF00
FFFFFF00
FFFFFF00
F0000000
F0000000
F0000000
F0000000
F0000000
F0000000
F0000000
F0000000
F0000000
F0000000
F0000000
FFFFFE00
FFFFFE00
FFFFFE00
FFFFFE00
F0000000
F0000000
F0000000
F0000000
F0000000
F0000000
F0000000
F0000000
F0000000
F0000000
F0000000
F0000000
FFFFFF80
FFFFFF80
FFFFFF80
FFFFFF80
ENDCHAR
STARTCHAR F
ENCODING 70
SWIDTH 610 0
DWIDTH 29 0
BBX 23 35 4 0
BITMAP
FFFFFE
FFFFFE
FFFFFE
FFFFFE
F00000
F00000
F00000
F00000
F00000
F00000
F00000
F00000
F00000
F00000
F00000
FFFFF0
FFFFF0
FFFFF0
FFFFF0
F00000
F00000
F00000
F00000
F00000
F00000
F00000
F00000
F00000
F00000
F00000
F00000
F00000
F00000
F00000
F00000
ENDCHAR
STARTCHAR G
ENCODING 71
SWIDTH 777 0
DWIDTH 37 0
BBX 32 37 2 -1
BITMAP
0007FC00
003FFF80
00FFFFC0
03FFFFF0
07F807F8
0FC001F8
1F80007C
1F00003E
3E00003E
3C00001E
7C00001F
78000000
78000000
78000000
F0000000
F0000000
F0000000
F0000000
F0003FFF
F0003FFF
F0003FFF
F0003FFF
F000000F
F800000F
7800000F
7800000F
7C00000F
3C00000F
3E00000F
1F00001F
1F80003F
0FE000FF
07FC07FE
03FFFFF8
00FFFFE0
003FFF80
0007FC00
ENDCHAR
STARTCHAR H
ENCODING 72
SWIDTH 722 0
DWIDTH 35 0
BBX 27 35 4 0
BITMAP
F00001E0
F00001E0
F00001E0
F00001E0
F00001E0
F00001E0
F00001E0
F00001E0
F00001E0
F00001E0
F00001E0
F00001E0
F00001E0
F00001E0
FFFFFFE0
FFFFFFE0
FFFFFFE0
FFFFFFE0
F00001E0
F00001E0
F00001E0
F00001E0
F00001E0
F00001E0
F00001E0
F00001E0
F00001E0
F00001E0
F00001E0
F00001E0
F00001E0
F00001E0
F00001E0
F00001E0
F00001E0
ENDCHAR
STARTCHAR I
ENCODING 73
SWIDTH 277 0
DWIDTH 12 0
BBX 4 35 4 0
BITMAP
F0
F0
F0
F0
F0
F0
F0
F0
F0
F0
F0
F0
F0
F0
F0
F0
F0
F0
F0
F0
F0
F0
F0
F0
F0
F0
F0
F0
F0
F0
F0
F0
F0
F0
F0
ENDCHAR
STARTCHAR J
ENCODING 74
SWIDTH 500 0
DWIDTH 24 0
BBX 18 36 2 -1
BITMAP
0003C0
0003C0
0003C0
0003C0
0003C0
0003C0
0003C0
0003C0
0003C0
0003C0
0003C0
0003C0
0003C0
0003C0
0003C0
0003C0
0003C0
0003C0
0003C0
0003C0
0003C0
0003C0
0003C0
0003C0
0003C0
F003C0
F003C0
F003C0
F003C0
F80780
780780
7E1F80
3FFF00
3FFE00
1FFC00
07F000
ENDCHAR
STARTCHAR K
ENCODING 75
SWIDTH 666 0
DWIDTH 32 0
BBX 28 35 4 0
BITMAP
F00007E0
F0000FC0
F0001F80
F0003F00
F0007E00
F000FC00
F001F800
F003F000
F007E000
F00FC000
F01F8000
F03F0000
F07E0000
F0FC0000
F1F80000
F3FC0000
F7FC0000
FFFE0000
FF9F0000
FF0F8000
FE078000
FC07C000
F803E000
F001F000
F000F000
F000F800
F0007C00
F0003C00
F0003E00
F0001F00
F0000F80
F0000780
F00007C0
F00003E0
F00001F0
ENDCHAR
STARTCHAR L
ENCODING 76
SWIDTH 556 0
DWIDTH 27 0
BBX 21 35 4 0
BITMAP
F00000
F00000
F00000
F00000
F00000
F00000
F00000
F00000
F00000
F00000
F00000
F00000
F00000
F00000
F00000
F00000
F00000
F00000
F00000
F00000
F00000
F00000
F00000
F00000
F00000
F00000
F00000
F00000
F00000
F00000
F00000
FFFFF8
FFFFF8
FFFFF8
FFFFF8
ENDCHAR
STARTCHAR M
ENCODING 77
SWIDTH 833 0
DWIDTH 39 0
BBX 31 35 4 0
BITMAP
FE0000FE
FE0000FE
FF0001FE
FF0001FE
FF0001FE
FF0001FE
F78003DE
F78003DE
F78003DE
F3C0079E
F3C0079E
F3C0079E
F3E00F9E
F1E00F1E
F1E00F1E
F1E00F1E
F0F01E1E
F0F01E1E
F0F01E1E
F0F83E1E
F0783C1E
F0783C1E
F0787C1E
F03C781E
F03C781E
F03C781E
F03EF81E
F01EF01E
F01EF01E
F01FF01E
F00FE01E
F00FE01E
F00FE01E
F00FE01E
F007C01E
ENDCHAR
STARTCHAR N
ENCODING 78
SWIDTH 722 0
DWIDTH 35 0
BBX 27 35 4 0
BITMAP
F80001E0
F80001E0
FC0001E0
FE0001E0
FE0001E0
FF0001E0
FF8001E0
F78001E0
F7C001E0
F3E001E0
F1E001E0
F1F001E0
F0F001E0
F07801E0
F07C01E0
F03C01E0
F01E01E0
F01F01E0
F00F01E0
F00781E0
F007C1E0
F003C1E0
F001E1E0
F001F1E0
F000F1E0
F000F9E0
F0007DE0
F0003DE0
F0003FE0
F0001FE0
F0000FE0
F0000FE0
F00007E0
F00003E0
F00003E0
ENDCHAR
STARTCHAR O
ENCODING 79
SWIDTH 777 0
DWIDTH 37 0
BBX 33 37 2 -1
BITMAP
000FF80000
007FFE0000
00FFFF8000
03FFFFE000
07F80FF000
0FC001F800
1F8000FC00
1F00007C00
3E00003E00
3C00001E00
7C00001F00
7800000F00
7800000F00
F800000F00
F000000780
F000000780
F000000780
F000000780
F000000780
F000000780
F000000780
F000000780
F000000780
F000000F80
7800000F00
7800000F00
7C00001F00
3C00001E00
3E00003E00
1F00007C00
1F8000FC00
0FC001F800
07F80FF000
03FFFFE000
00FFFF8000
007FFE0000
000FF80000
ENDCHAR
STARTCHAR P
ENCODING 80
SWIDTH 666 0
DWIDTH 32 0
BBX 26 35 4 0
BITMAP
FFFFE000
FFFFF800
FFFFFE00
FFFFFF00
F0003F00
F0000F80
F0000780
F00007C0
F00003C0
F00003C0
F00003C0
F00003C0
F00003C0
F00007C0
F0000780
F0000F80
F0003F00
FFFFFE00
FFFFFE00
FFFFF800
FFFFC000
F0000000
F0000000
F0000000
F0000000
F0000000
F0000000
F0000000
F0000000
F0000000
F0000000
F0000000
F0000000
F0000000
F0000000
ENDCHAR
STARTCHAR Q
ENCODING 81
SWIDTH 777 0
DWIDTH 37 0
BBX 33 39 2 -3
BITMAP
000FF00000
007FFE0000
01FFFF8000
03FFFFC000
07F81FE000
0FC003F000
1F8001F800
1F0000F800
3E00007C00
3C00003C00
7800003E00
7800001E00
7800001E00
F800001F00
F000000F00
F000000F00
F000000F00
F000000F00
F000000F00
F000000F00
F000000F00
F000000F00
F000000F00
F800001F00
7800001E00
7800001E00
7C00003E00
3C00703E00
3E007C7C00
1F00FEFC00
1F803FF800
0FC00FF000
07F01FF000
03FFFFF800
00FFFFFC00
007FFE7F00
000FF01F80
0000000F00
0000000300
ENDCHAR
STARTCHAR R
ENCODING 82
SWIDTH 722 0
DWIDTH 35 0
BBX 28 35 4 0
BITMAP
FFFFF000
FFFFFE00
FFFFFF00
FFFFFF80
F0001FC0
F00007C0
F00003E0
F00001E0
F00001E0
F00001E0
F00001E0
F00003E0
F00003E0
F00007C0
F0003FC0
FFFFFF80
FFFFFF00
FFFFFC00
FFFFF000
F007C000
F003E000
F001F000
F000F800
F0007800
F0007C00
F0003E00
F0001F00
F0001F00
F0000F80
F0000780
F00007C0
F00003E0
F00001E0
F00001F0
F00000F0
ENDCHAR
STARTCHAR S
ENCODING 83
SWIDTH 666 0
DWIDTH 32 0
BBX 27 37 2 -1
BITMAP
007FC000
03FFF000
07FFFC00
1FFFFE00
1F807F00
3E001F80
3C000780
780007C0
780003C0
780003C0
78000000
78000000
7C000000
3F000000
3FE00000
1FFE0000
0FFFC000
07FFF800
01FFFE00
001FFF00
0001FF80
00003FC0
00000FC0
000003E0
000003E0
F00001E0
F00001E0
F80001E0
780001E0
7C0003C0
7E0003C0
3F000FC0
1FE03F80
0FFFFF00
07FFFE00
01FFF800
003FC000
ENDCHAR
STARTCHAR T
ENCODING 84
SWIDTH 610 0
DWIDTH 28 0
BBX 26 35 1 0
BITMAP
FFFFFFC0
FFFFFFC0
FFFFFFC0
FFFFFFC0
001E0000
001E0000
001E0000
001E0000
001E0000
001E0000
001E0000
001E0000
001E0000
001E0000
001E0000
001E0000
001E0000
001E0000
001E0000
001E0000
001E0000
001E0000
001E0000
001E0000
001E0000
001E0000
001E0000
001E0000
001E0000
001E0000
001E0000
001E0000
001E0000
001E0000
001E0000
ENDCHAR
STARTCHAR U
ENCODING 85
SWIDTH 722 0
DWIDTH 35 0
BBX 27 36 4 -1
BITMAP
F00001E0
F00001E0
F00001E0
F00001E0
F00001E0
F00001E0
F00001E0
F00001E0
F00001E0
F00001E0
F00001E0
F00001E0
F00001E0
F00001E0
F00001E0
F00001E0
F00001E0
F00001E0
F00001E0
F00001E0
F00001E0
F00001E0
F00001E0
F00001E0
F00001E0
F00001E0
F80003C0
780003C0
780003C0
7C0007C0
3E000F80
3FC07F00
1FFFFE00
0FFFFC00
03FFF800
007FC000
ENDCHAR
STARTCHAR V
ENCODING 86
SWIDTH 666 0
DWIDTH 32 0
BBX 31 35 1 0
BITMAP
F000001E
F800003E
7800003E
7800003C
7C00007C
3C000078
3E0000F8
3E0000F8
1E0000F0
1F0001F0
0F0001E0
0F0001E0
0F8003E0
078003C0
07C007C0
03C007C0
03C00780
03E00F80
01E00F00
01E01F00
01F01F00
00F01E00
00F83E00
00783C00
00783C00
007C7C00
003C7800
003EF800
001EF000
001EF000
001FF000
000FE000
000FE000
0007E000
0007C000
ENDCHAR
STARTCHAR W
ENCODING 87
SWIDTH 943 0
DWIDTH 48 0
BBX 47 35 1 0
BITMAP
F0000FC0001E
F0000FE0001E
78000FE0003C
78000FE0003C
78001EF0003C
38001EF00038
3C001EF00078
3C003EF80078
3C003C780078
1C003C780070
1E007C7C00F0
1E00783C00F0
1E00783C00F0
0E00783C00E0
0F00F01E01E0
0F00F01E01E0
0700F01E01C0
0701E00F01C0
0781E00F03C0
0781E00F03C0
0383E00F8380
0383C0078380
03C3C0078780
03C3C0078780
01C78003C700
01C78003C700
01E78003CF00
00EF0001EE00
00EF0001EE00
00EF0001EE00
00FF0000FE00
007E0000FC00
007E0000FC00
007E0000FC00
007C00007C00
ENDCHAR
STARTCHAR X
ENCODING 88
SWIDTH 666 0
DWIDTH 31 0
BBX 31 35 0 0
BITMAP
3E0000F8
1F0001F0
0F0001E0
0F8003E0
07C007C0
03C00F80
01E00F80
01F01F00
00F83E00
00783C00
007C7C00
003EF800
001EF000
001FF000
000FE000
0007C000
0007C000
000FE000
001FF000
001EF000
003EF800
007C7C00
00783C00
00F83E00
01F01F00
01E00F00
03E00F80
07C007C0
0F8003C0
0F8001E0
1F0001F0
3E0000F8
3C000078
7C00007C
F800003E
ENDCHAR
STARTCHAR Y
ENCODING 89
SWIDTH 666 0
DWIDTH 30 0
BBX 30 35 0 0
BITMAP
F800007C
7C0000F8
3C0000F0
3E0001F0
1E0001E0
0F0003C0
0F8007C0
07800780
07C00F80
03E01F00
01E01E00
01F03E00
00F87C00
00787800
007CF800
003FF000
001FE000
001FE000
000FC000
00078000
00078000
00078000
00078000
00078000
00078000
00078000
00078000
00078000
00078000
00078000
00078000
00078000
00078000
00078000
00078000
ENDCHAR
STARTCHAR Z
ENCODING 90
SWIDTH 610 0
DWIDTH 29 0
BBX 27 35 1 0
BITMAP
3FFFFFC0
3FFFFFC0
3FFFFFC0
3FFFFFC0
000007C0
00000F80
00001F00
00003E00
00003C00
00007C00
0000F800
0001F000
0003E000
0003E000
0007C000
000F8000
001F0000
001E0000
003E0000
007C0000
00F80000
01F00000
01E00000
03E00000
07C00000
0F800000
1F000000
1E000000
3E000000
7C000000
F8000000
FFFFFFE0
FFFFFFE0
FFFFFFE0
FFFFFFE0
ENDCHAR
STARTCHAR bracketleft
ENCODING 91
SWIDTH 277 0
DWIDTH 13 0
BBX 9 45 3 -10
BITMAP
FF80
FF80
FF80
FF80
F000
F000
F000
F000
F000
F000
F000
F000
F000
F000
F000
F000
F000
F000
F000
F000
F000
F000
F000
F000
F000
F000
F000
F000
F000
F000
F000
F000
F000
F000
F000
F000
F000
F000
F000
F000
F000
FF80
FF80
FF80
FF80
ENDCHAR
STARTCHAR backslash
ENCODING 92
SWIDTH 277 0
DWIDTH 13 0
BBX 14 35 0 0
BITMAP
F000
F000
7800
7800
7800
7C00
3C00
3C00
3C00
1E00
1E00
1E00
1F00
0F00
0F00
0F00
0780
0780
0780
07C0
03C0
03C0
03C0
01E0
01E0
01E0
01F0
00F0
00F0
00F0
0078
0078
0078
007C
003C
ENDCHAR
STARTCHAR bracketright
ENCODING 93
SWIDTH 277 0
DWIDTH 13 0
BBX 9 45 1 -10
BITMAP
FF80
FF80
FF80
FF80
0780
0780
0780
0780
0780
0780
0780
0780
0780
0780
0780
0780
0780
0780
0780
0780
0780
0780
0780
0780
0780
0780
0780
0780
0780
0780
0780
0780
0780
0780
0780
0780
0780
0780
0780
0780
0780
FF80
FF80
FF80
FF80
ENDCHAR
STARTCHAR asciicircum
ENCODING 94
SWIDTH 469 0
DWIDTH 22 0
BBX 20 19 1 16
BITMAP
00F000
01F800
01F800
01F800
03FC00
039C00
079E00
079E00
0F0F00
0F0F00
0E0700
1E0780
1E0780
3C03C0
3C03C0
7801E0
7801E0
7801E0
F000F0
ENDCHAR
STARTCHAR underscore
ENCODING 95
SWIDTH 556 0
DWIDTH 27 0
BBX 28 4 -1 -10
BITMAP
FFFFFFF0
FFFFFFF0
FFFFFFF0
FFFFFFF0
ENDCHAR
STARTCHAR grave
ENCODING 96
SWIDTH 333 0
DWIDTH 16 0
BBX 8 7 2 28
BITMAP
FC
7C
3E
3E
1E
0F
07
ENDCHAR
STARTCHAR a
ENCODING 97
SWIDTH 556 0
DWIDTH 27 0
BBX 23 27 2 0
BITMAP
00FF80
07FFE0
0FFFF0
1FFFF8
3F01F8
3E007C
7C003C
7C003C
18003C
00003C
0000FC
003FFC
07FFFC
1FFFFC
3FFF3C
7FC03C
7C003C
F8003C
F0003C
F0007C
F000FC
F801FC
7C07FC
7FFFFC
3FFFBC
1FFF3E
07F81E
ENDCHAR
STARTCHAR b
ENCODING 98
SWIDTH 556 0
DWIDTH 27 0
BBX 22 35 3 0
BITMAP
F00000
F00000
F00000
F00000
F00000
F00000
F00000
F00000
F0FC00
F3FF80
F7FFC0
FFFFE0
FF83F0
FE01F0
FC00F8
F80078
F80078
F0003C
F0003C
F0003C
F0003C
F0003C
F0003C
F0003C
F0003C
F0007C
F80078
F80078
FC00F8
FE01F0
FF07E0
FFFFE0
F7FFC0
F3FF00
F0FC00
ENDCHAR
STARTCHAR c
ENCODING 99
SWIDTH 500 0
DWIDTH 24 0
BBX 22 27 2 0
BITMAP
00FE00
07FF80
0FFFC0
1FFFE0
3F83F0
3E01F0
7C00F8
7800F8
780060
F00000
F00000
F00000
F00000
F00000
F00000
F00000
F00000
F00030
78003C
78007C
7C0078
3E00F8
3F83F0
1FFFF0
0FFFE0
03FF80
00FE00
ENDCHAR
STARTCHAR d
ENCODING 100
SWIDTH 556 0
DWIDTH 27 0
BBX 22 35 2 0
BITMAP
00003C
00003C
00003C
00003C
00003C
00003C
00003C
00003C
00FC3C
07FF3C
0FFFBC
1FFFFC
3F07FC
3E01FC
7C00FC
78007C
78007C
F0007C
F0003C
F0003C
F0003C
F0003C
F0003C
F0003C
F0003C
F0003C
78007C
78007C
7C00FC
3E01FC
3F83FC
1FFFFC
0FFFBC
03FF3C
00FC3C
ENDCHAR
STARTCHAR e
ENCODING 101
SWIDTH 556 0
DWIDTH 27 0
BBX 23 27 2 0
BITMAP
00FE00
03FF80
0FFFE0
1FFFF0
3F83F8
3E00F8
7C007C
78003C
78003C
F0001E
F0001E
FFFFFE
FFFFFE
FFFFFE
FFFFFE
F00000
F00000
F00000
780018
78003E
7C003C
3E007C
3F81F8
1FFFF8
0FFFF0
03FFC0
00FF00
ENDCHAR
STARTCHAR f
ENCODING 102
SWIDTH 277 0
DWIDTH 13 0
BBX 15 35 0 0
BITMAP
01FE
03FC
07FC
0FFC
0F80
0F00
0F00
0F00
0F00
FFF8
FFF8
FFF8
FFF8
0F00
0F00
0F00
0F00
0F00
0F00
0F00
0F00
0F00
0F00
0F00
0F00
0F00
0F00
0F00
0F00
0F00
0F00
0F00
0F00
0F00
0F00
ENDCHAR
STARTCHAR g
ENCODING 103
SWIDTH 556 0
DWIDTH 27 0
BBX 22 37 2 -10
BITMAP
01FC00
07FF3C
0FFFBC
1FFFFC
3F07FC
3E01FC
7C00FC
78007C
78007C
F0003C
F0003C
F0003C
F0003C
F0003C
F0003C
F0003C
F0003C
F0003C
78007C
78007C
7C00FC
3E01FC
3F03FC
1FFFFC
0FFFFC
07FF3C
01FC3C
00003C
00003C
600078
780078
7C00F8
3E03F0
3FFFF0
1FFFE0
0FFF80
01FE00
ENDCHAR
STARTCHAR h
ENCODING 104
SWIDTH 556 0
DWIDTH 27 0
BBX 21 35 3 0
BITMAP
F00000
F00000
F00000
F00000
F00000
F00000
F00000
F00000
F07E00
F1FFC0
F7FFE0
FFFFF0
FF83F0
FE01F0
FC00F8
F80078
F00078
F00078
F00078
F00078
F00078
F00078
F00078
F00078
F00078
F00078
F00078
F00078
F00078
F00078
F00078
F00078
F00078
F00078
F00078
ENDCHAR
STARTCHAR i
ENCODING 105
SWIDTH 222 0
DWIDTH 10 0
BBX 4 35 3 0
BITMAP
F0
F0
F0
F0
00
00
00
00
00
F0
F0
F0
F0
F0
F0
F0
F0
F0
F0
F0
F0
F0
F0
F0
F0
F0
F0
F0
F0
F0
F0
F0
F0
F0
F0
ENDCHAR
STARTCHAR j
ENCODING 106
SWIDTH 222 0
DWIDTH 10 0
BBX 9 45 -2 -10
BITMAP
0780
0780
0780
0780
0000
0000
0000
0000
0000
0780
0780
0780
0780
0780
0780
0780
0780
0780
0780
0780
0780
0780
0780
0780
0780
0780
0780
0780
0780
0780
0780
0780
0780
0780
0780
0780
0780
0780
0780
0780
0F80
FF00
FF00
FE00
FC00
ENDCHAR
STARTCHAR k
ENCODING 107
SWIDTH 500 0
DWIDTH 24 0
BBX 21 35 3 0
BITMAP
F00000
F00000
F00000
F00000
F00000
F00000
F00000
F00000
F00000
F003F0
F007E0
F00FC0
F01F80
F03F00
F07E00
F0FC00
F1F800
F3F000
F7E000
FFE000
FFF000
FFF000
FEF800
FC7C00
F83C00
F03E00
F01E00
F00F00
F00F80
F00780
F007C0
F003E0
F001E0
F001F0
F000F8
ENDCHAR
STARTCHAR l
ENCODING 108
SWIDTH 222 0
DWIDTH 10 0
BBX 4 35 3 0
BITMAP
F0
F0
F0
F0
F0
F0
F0
F0
F0
F0
F0
F0
F0
F0
F0
F0
F0
F0
F0
F0
F0
F0
F0
F0
F0
F0
F0
F0
F0
F0
F0
F0
F0
F0
F0
ENDCHAR
STARTCHAR m
ENCODING 109
SWIDTH 833 0
DWIDTH 40 0
BBX 34 27 3 0
BITMAP
007C01F800
F1FF07FE00
F7FF8FFF00
F7FFDFFF80
FF07DE0F80
FC03F807C0
F803F003C0
F801F003C0
F801E003C0
F001E003C0
F001E003C0
F001E003C0
F001E003C0
F001E003C0
F001E003C0
F001E003C0
F001E003C0
F001E003C0
F001E003C0
F001E003C0
F001E003C0
F001E003C0
F001E003C0
F001E003C0
F001E003C0
F001E003C0
F001E003C0
ENDCHAR
STARTCHAR n
ENCODING 110
SWIDTH 556 0
DWIDTH 27 0
BBX 21 27 3 0
BITMAP
007F00
F1FFC0
F3FFE0
F7FFF0
FF03F0
FE01F8
F800F8
F80078
F80078
F00078
F00078
F00078
F00078
F00078
F00078
F00078
F00078
F00078
F00078
F00078
F00078
F00078
F00078
F00078
F00078
F00078
F00078
ENDCHAR
STARTCHAR o
ENCODING 111
SWIDTH 556 0
DWIDTH 27 0
BBX 23 27 2 0
BITMAP
00FE00
03FF80
0FFFE0
1FFFF0
3F83F8
3E00F8
7C007C
78003C
78003C
F0003E
F0001E
F0001E
F0001E
F0001E
F0001E
F0001E
F0001E
F8003E
78003C
78003C
7C007C
3E00F8
3F83F8
1FFFF0
0FFFE0
03FF80
00FE00
ENDCHAR
STARTCHAR p
ENCODING 112
SWIDTH 556 0
DWIDTH 27 0
BBX 22 37 3 -10
BITMAP
00FE00
F1FF80
F7FFC0
F7FFE0
FF87F0
FE01F0
FC00F8
F80078
F80078
F8003C
F0003C
F0003C
F0003C
F0003C
F0003C
F0003C
F0003C
F0007C
F80078
F80078
FC00F8
FE01F0
FF07E0
FFFFE0
F7FFC0
F3FF00
F0FC00
F00000
F00000
F00000
F00000
F00000
F00000
F00000
F00000
F00000
F00000
ENDCHAR
STARTCHAR q
ENCODING 113
SWIDTH 556 0
DWIDTH 27 0
BBX 22 37 2 -10
BITMAP
01F800
07FE3C
0FFF3C
1FFFBC
3F07FC
3E01FC
7C00FC
78007C
78007C
F0007C
F0003C
F0003C
F0003C
F0003C
F0003C
F0003C
F0003C
F0003C
78007C
78007C
7C00FC
3E01FC
1F83FC
1FFFFC
0FFFBC
03FF3C
00FC3C
00003C
00003C
00003C
00003C
00003C
00003C
00003C
00003C
00003C
00003C
ENDCHAR
STARTCHAR r
ENCODING 114
SWIDTH 333 0
DWIDTH 16 0
BBX 14 27 3 0
BITMAP
01F0
E7FC
EFFC
FFF8
FE18
FC00
F800
F800
F000
F000
F000
F000
F000
F000
F000
F000
F000
F000
F000
F000
F000
F000
F000
F000
F000
F000
F000
ENDCHAR
STARTCHAR s
ENCODING 115
SWIDTH 500 0
DWIDTH 24 0
BBX 20 27 2 0
BITMAP
03FC00
0FFF00
1FFF80
3FFFC0
3E07C0
7C03E0
7801E0
780180
7C0000
7E0000
3FC000
3FF800
1FFF00
0FFFC0
01FFE0
003FE0
0007F0
0001F0
3000F0
F000F0
F800F0
7C01E0
7E07E0
3FFFC0
1FFFC0
0FFF00
03FC00
ENDCHAR
STARTCHAR t
ENCODING 116
SWIDTH 277 0
DWIDTH 13 0
BBX 12 34 1 0
BITMAP
0600
0E00
1E00
1E00
1E00
1E00
1E00
1E00
FFE0
FFE0
FFE0
FFE0
1E00
1E00
1E00
1E00
1E00
1E00
1E00
1E00
1E00
1E00
1E00
1E00
1E00
1E00
1E00
1E00
1E00
1F00
1FE0
0FE0
0FF0
03F0
ENDCHAR
STARTCHAR u
ENCODING 117
SWIDTH 556 0
DWIDTH 27 0
BBX 21 26 3 0
BITMAP
F00078
F00078
F00078
F00078
F00078
F00078
F00078
F00078
F00078
F00078
F00078
F00078
F00078
F00078
F00078
F00078
F00078
F00078
F000F8
F801F8
F803F8
7E07F8
7FFF78
3FFE78
1FFC78
07F078
ENDCHAR
STARTCHAR v
ENCODING 118
SWIDTH 500 0
DWIDTH 25 0
BBX 23 26 1 0
BITMAP
F0001E
78003C
78003C
78003C
3C0078
3C0078
3E00F8
1E00F0
1E00F0
1F01F0
0F01E0
0F01E0
0F83E0
0783C0
07C3C0
07C7C0
03C780
03EF80
01EF80
01EF00
01EF00
00FE00
00FE00
00FE00
007C00
007C00
ENDCHAR
STARTCHAR w
ENCODING 119
SWIDTH 722 0
DWIDTH 33 0
BBX 33 26 0 0
BITMAP
F003E00780
F003E00780
F003E00780
7803F00F00
7807F00F00
7807F00F00
3C07701E00
3C07781E00
3C0F781E00
3C0F781E00
1E0E783C00
1E0E3C3C00
1E1E3C3C00
0F1E3C7800
0F1C3C7800
0F1C1E7800
073C1EF000
07BC1EF000
07B81EF000
03B80EE000
03F80FE000
03F80FE000
03F80FC000
01F007C000
01F007C000
01F0078000
ENDCHAR
STARTCHAR x
ENCODING 120
SWIDTH 500 0
DWIDTH 24 0
BBX 24 26 0 0
BITMAP
7C001E
3E003E
1E007C
1F00F8
0F80F0
07C1F0
03C3E0
03E3C0
01F780
00FF80
00FF00
007E00
003E00
007E00
00FF00
00FF80
01F780
03E7C0
07C3E0
0781E0
0F81F0
1F00F8
1E007C
3E003C
7C003E
F8001F
ENDCHAR
STARTCHAR y
ENCODING 121
SWIDTH 500 0
DWIDTH 23 0
BBX 21 36 1 -10
BITMAP
F00078
780078
7800F0
7800F0
3C00F0
3C01E0
3C01E0
1E01E0
1E03E0
1F03C0
0F03C0
0F07C0
0F8780
078780
078780
07CF00
03CF00
03EF00
03EE00
01FE00
01FE00
01FE00
00FC00
00FC00
007C00
007800
007800
00F800
00F000
00F000
01E000
03E000
7FC000
7FC000
3F8000
3E0000
ENDCHAR
STARTCHAR z
ENCODING 122
SWIDTH 500 0
DWIDTH 24 0
BBX 22 26 1 0
BITMAP
7FFFF8
7FFFF8
7FFFF8
7FFFF8
0001F0
0003E0
0007C0
0007C0
000F80
001F00
003E00
007C00
00F800
01F000
01F000
03E000
07C000
0F8000
1F0000
3E0000
7C0000
7C0000
FFFFFC
FFFFFC
FFFFFC
FFFFFC
ENDCHAR
STARTCHAR braceleft
ENCODING 123
SWIDTH 333 0
DWIDTH 16 0
BBX 14 45 1 -10
BITMAP
007C
01FC
03FC
03FC
07C0
0780
0780
0780
0780
0780
0780
0780
0780
0780
0780
0780
0780
0F00
0F00
3E00
FC00
F800
F800
FC00
3E00
0F00
0F00
0780
0780
0780
0780
0780
0780
0780
0780
0780
0780
0780
0780
0780
07C0
03FC
03FC
01FC
007C
ENDCHAR
STARTCHAR bar
ENCODING 124
SWIDTH 259 0
DWIDTH 12 0
BBX 4 45 4 -10
BITMAP
F0
F0
F0
F0
F0
F0
F0
F0
F0
F0
F0
F0
F0
F0
F0
F0
F0
F0
F0
F0
F0
F0
F0
F0
F0
F0
F0
F0
F0
F0
F0
F0
F0
F0
F0
F0
F0
F0
F0
F0
F0
F0
F0
F0
F0
ENDCHAR
STARTCHAR braceright
ENCODING 125
SWIDTH 333 0
DWIDTH 16 0
BBX 14 45 1 -10
BITMAP
F800
FE00
FF00
FF00
0F80
0780
0780
0780
0780
0780
0780
0780
0780
0780
0780
0780
0780
03C0
03C0
01F0
00FC
007C
007C
01FC
01F0
03C0
07C0
0780
0780
0780
0780
0780
0780
0780
0780
0780
0780
0780
0780
0780
0F80
FF00
FF00
FE00
F800
ENDCHAR
STARTCHAR asciitilde
ENCODING 126
SWIDTH 583 0
DWIDTH 28 0
BBX 24 8 2 13
BITMAP
0F8000
3FF001
7FFC03
FFFF0F
F0FFFF
C01FFE
800FFC
0001F0
ENDCHAR
STARTCHAR degree
ENCODING 176
SWIDTH 399 0
DWIDTH 19 0
BBX 13 13 3 22
BITMAP
0F80
3FE0
7FF0
78F0
F078
E038
E038
E038
F078
78F0
7FF0
3FE0
0F80
ENDCHAR
STARTCHAR periodcentered
ENCODING 183
SWIDTH 333 0
DWIDTH 16 0
BBX 4 4 6 15
BITMAP
F0
F0
F0
F0
ENDCHAR
ENDFONT
